<svg xmlns="http://www.w3.org/2000/svg" xmlns:xlink="http://www.w3.org/1999/xlink" viewBox="0 0 985.94 310.06"><defs><style>.cls-1{fill:#fff;}.cls-2,.cls-3,.cls-6,.cls-7{fill:none;stroke-miterlimit:10;}.cls-2,.cls-6,.cls-7{stroke:#999;}.cls-2,.cls-3{stroke-width:10px;}.cls-3{stroke:url(#Degradado_sin_nombre_17);}.cls-11,.cls-4{font-size:37.16px;font-family:OpenSans-Bold, Open Sans;}.cls-4,.cls-9{fill:#2e58a6;}.cls-11,.cls-4,.cls-5{font-weight:700;}.cls-5{font-size:24.55px;font-family:OpenSans-BoldItalic, Open Sans;font-style:italic;}.cls-10,.cls-11,.cls-5{fill:#59103a;}.cls-6,.cls-7{stroke-width:5px;}.cls-7{stroke-dasharray:25.51 10.63;}.cls-8{fill:#999;}</style><linearGradient id="Degradado_sin_nombre_17" x1="177.98" y1="199.9" x2="253.98" y2="199.9" gradientUnits="userSpaceOnUse"><stop offset="0" stop-color="#fff" stop-opacity="0"/><stop offset="0.63" stop-color="#999"/><stop offset="1"/></linearGradient></defs><title>Recurso 6</title><g id="Capa_2" data-name="Capa 2"><g id="Capa_1-2" data-name="Capa 1"><rect class="cls-1" width="985.94" height="310.06"/><line class="cls-2" x1="406.84" y1="199.9" x2="253.98" y2="199.9"/><path class="cls-2" d="M254,199.9s17.66,0,36.57,0,28.49-30.66,42-59.9S355.72,80,374.65,80h36.54"/><line class="cls-3" x1="253.98" y1="199.9" x2="177.98" y2="199.9"/><text class="cls-4" transform="translate(47.24 210.26)">master</text><text class="cls-5" transform="translate(806.85 259.32)">cherry-pick</text><line class="cls-6" x1="564.17" y1="80.02" x2="575.45" y2="84.14"/><line class="cls-7" x1="585.43" y1="87.78" x2="818.09" y2="172.64"/><line class="cls-6" x1="823.08" y1="174.46" x2="834.36" y2="178.57"/><polygon class="cls-8" points="828.97 185.89 846.15 182.87 834.95 169.5 828.97 185.89"/><circle class="cls-9" cx="253.98" cy="199.9" r="27.9"/><line class="cls-2" x1="563.74" y1="80.02" x2="410.88" y2="80.02"/><circle class="cls-10" cx="410.88" cy="80.02" r="27.9"/><line class="cls-2" x1="717.03" y1="80.02" x2="564.17" y2="80.02"/><circle class="cls-10" cx="564.17" cy="80.02" r="27.9"/><circle class="cls-10" cx="718.24" cy="80.02" r="27.9"/><line class="cls-2" x1="871.1" y1="199.9" x2="718.24" y2="199.9"/><line class="cls-2" x1="563.74" y1="199.9" x2="410.88" y2="199.9"/><line class="cls-2" x1="717.03" y1="199.9" x2="564.17" y2="199.9"/><circle class="cls-9" cx="564.17" cy="199.9" r="27.9"/><text class="cls-11" transform="translate(201.69 90.86)">rama_2</text><circle class="cls-9" cx="406.75" cy="199.9" r="27.9"/><circle class="cls-9" cx="718.24" cy="199.9" r="27.9"/><circle class="cls-10" cx="871.53" cy="199.9" r="27.9"/></g></g></svg>