<?xml version="1.0" encoding="utf-8"?>
<!-- Generator: Adobe Illustrator 23.0.0, SVG Export Plug-In . SVG Version: 6.00 Build 0)  -->
<svg version="1.1" id="Capa_1" xmlns="http://www.w3.org/2000/svg" xmlns:xlink="http://www.w3.org/1999/xlink" x="0px" y="0px"
	 viewBox="0 0 64 64" style="enable-background:new 0 0 64 64;" xml:space="preserve">
<style type="text/css">
	.st0{fill:#F7F7F7;}
	.st1{fill:#DD6460;}
	.st2{fill:#A64B48;}
	.st3{fill:#696F71;}
	.st4{fill:#65C8D0;}
	.st5{fill:#4C969C;}
</style>
<circle class="st0" cx="32" cy="32" r="32"/>
<path class="st1" d="M13.03,33.83l-7.65,7.65c-0.19,0.19-0.1,0.41,0.2,0.49l12.88,3.45l8.51-8.51l-12.61-3.38
	C13.92,33.41,13.32,33.55,13.03,33.83z"/>
<path class="st2" d="M28.03,37.89l-8.54,8.54l3.46,12.92c0.08,0.3,0.3,0.39,0.49,0.2l7.84-7.84c0.19-0.19,0.28-0.59,0.2-0.89
	L28.03,37.89z"/>
<rect x="15.3" y="36.35" transform="matrix(0.7071 -0.7071 0.7071 0.7071 -18.0567 30.542)" class="st3" width="25.07" height="1.44"/>
<path class="st4" d="M51.13,13.2l-21.34,7.16c-0.32,0.11-0.42,0.51-0.18,0.75l14.18,14.18c0.24,0.24,0.65,0.14,0.75-0.18l7.16-21.34
	C51.83,13.42,51.49,13.08,51.13,13.2z"/>
<path class="st5" d="M51.6,13.31c0.11,0.11,0.17,0.29,0.11,0.47l-7.16,21.34c-0.11,0.32-0.51,0.42-0.75,0.18L36.7,28.2L51.6,13.31z"
	/>
</svg>
