<?xml version="1.0" encoding="utf-8"?>
<!-- Generator: Adobe Illustrator 23.1.0, SVG Export Plug-In . SVG Version: 6.00 Build 0)  -->
<svg version="1.0" id="Capa_1" xmlns="http://www.w3.org/2000/svg" xmlns:xlink="http://www.w3.org/1999/xlink" x="0px" y="0px"
	 viewBox="0 0 1024 320" enable-background="new 0 0 1024 320" xml:space="preserve">
<line fill="none" stroke="#999999" stroke-width="10" stroke-miterlimit="10" x1="487.88" y1="100.06" x2="263.88" y2="100.06"/>
<line fill="none" stroke="#999999" stroke-width="10" stroke-miterlimit="10" x1="487.88" y1="219.94" x2="263.88" y2="219.94"/>
<linearGradient id="SVGID_1_" gradientUnits="userSpaceOnUse" x1="187.8791" y1="100.0626" x2="263.8827" y2="100.0626">
	<stop  offset="0" style="stop-color:#FFFFFF;stop-opacity:0"/>
	<stop  offset="0.6332" style="stop-color:#999999"/>
	<stop  offset="1" style="stop-color:#000000"/>
</linearGradient>
<line fill="none" stroke="url(#SVGID_1_)" stroke-width="10" stroke-miterlimit="10" x1="263.88" y1="100.06" x2="187.88" y2="100.06"/>
<linearGradient id="SVGID_2_" gradientUnits="userSpaceOnUse" x1="187.8791" y1="219.9372" x2="263.8827" y2="219.9372">
	<stop  offset="0" style="stop-color:#FFFFFF;stop-opacity:0"/>
	<stop  offset="0.6332" style="stop-color:#999999"/>
	<stop  offset="1" style="stop-color:#000000"/>
</linearGradient>
<line fill="none" stroke="url(#SVGID_2_)" stroke-width="10" stroke-miterlimit="10" x1="263.88" y1="219.94" x2="187.88" y2="219.94"/>
<path fill="none" stroke="#999999" stroke-width="10" stroke-miterlimit="10" d="M711.87,100.06c0,0-25.16,0.04-52.1,0.04
	c-26.95,0-40.6,30.65-59.9,59.9s-32.96,59.94-59.94,59.94s-52.06,0-52.06,0"/>
<line fill="none" stroke="#999999" stroke-width="10" stroke-miterlimit="10" x1="711.87" y1="100.06" x2="487.88" y2="100.06"/>
<circle fill="#2E58A6" cx="487.88" cy="100.06" r="27.9"/>
<line fill="none" stroke="#999999" stroke-width="10" stroke-miterlimit="10" x1="935.86" y1="100.06" x2="711.87" y2="100.06"/>
<g>
	<path fill="#2E58A6" d="M78.21,110.42h-5.53V98.58c0-1.46-0.25-2.56-0.73-3.29c-0.49-0.73-1.26-1.1-2.31-1.1
		c-1.42,0-2.44,0.52-3.08,1.56c-0.64,1.04-0.96,2.75-0.96,5.13v9.54h-5.53V90.14h4.23l0.74,2.59h0.31c0.54-0.93,1.33-1.66,2.36-2.19
		c1.03-0.53,2.21-0.79,3.54-0.79c3.04,0,5.09,0.99,6.17,2.98h0.49c0.54-0.94,1.35-1.68,2.4-2.2s2.25-0.78,3.58-0.78
		c2.3,0,4.04,0.59,5.22,1.77c1.18,1.18,1.77,3.07,1.77,5.67v13.23H85.3V98.58c0-1.46-0.25-2.56-0.73-3.29
		c-0.49-0.73-1.26-1.1-2.31-1.1c-1.35,0-2.37,0.48-3.04,1.45s-1.01,2.5-1.01,4.61V110.42z"/>
	<path fill="#2E58A6" d="M109.42,110.42l-1.07-2.76h-0.15c-0.93,1.17-1.89,1.99-2.88,2.44c-0.99,0.45-2.27,0.68-3.86,0.68
		c-1.95,0-3.48-0.56-4.6-1.67c-1.12-1.11-1.68-2.7-1.68-4.75c0-2.15,0.75-3.74,2.26-4.76c1.51-1.02,3.78-1.59,6.81-1.7l3.52-0.11
		v-0.89c0-2.06-1.05-3.08-3.16-3.08c-1.62,0-3.53,0.49-5.72,1.47l-1.83-3.74c2.33-1.22,4.92-1.83,7.77-1.83
		c2.72,0,4.81,0.59,6.26,1.78c1.45,1.19,2.18,2.99,2.18,5.41v13.52H109.42z M107.78,101.03l-2.14,0.07
		c-1.61,0.05-2.81,0.34-3.59,0.87c-0.79,0.53-1.18,1.34-1.18,2.43c0,1.56,0.9,2.34,2.69,2.34c1.28,0,2.31-0.37,3.08-1.11
		c0.77-0.74,1.15-1.72,1.15-2.94V101.03z"/>
	<path fill="#2E58A6" d="M133.13,104.4c0,2.08-0.72,3.67-2.17,4.75c-1.45,1.09-3.61,1.63-6.49,1.63c-1.48,0-2.73-0.1-3.77-0.3
		c-1.04-0.2-2.01-0.49-2.92-0.88v-4.57c1.03,0.48,2.19,0.89,3.47,1.22c1.29,0.33,2.42,0.49,3.4,0.49c2.01,0,3.01-0.58,3.01-1.74
		c0-0.44-0.13-0.79-0.4-1.06c-0.27-0.27-0.73-0.58-1.38-0.93c-0.65-0.34-1.52-0.75-2.61-1.21c-1.56-0.65-2.71-1.26-3.44-1.81
		c-0.73-0.56-1.26-1.19-1.6-1.91s-0.5-1.61-0.5-2.66c0-1.8,0.7-3.2,2.1-4.18c1.4-0.99,3.38-1.48,5.94-1.48
		c2.44,0,4.82,0.53,7.13,1.6l-1.67,3.99c-1.02-0.44-1.97-0.79-2.85-1.07c-0.88-0.28-1.78-0.42-2.7-0.42c-1.63,0-2.45,0.44-2.45,1.32
		c0,0.5,0.26,0.93,0.79,1.29s1.68,0.9,3.46,1.61c1.58,0.64,2.75,1.24,3.48,1.8c0.74,0.56,1.28,1.2,1.63,1.92
		C132.95,102.53,133.13,103.4,133.13,104.4z"/>
	<path fill="#2E58A6" d="M145.99,106.38c0.97,0,2.13-0.21,3.48-0.64v4.12c-1.38,0.62-3.07,0.93-5.08,0.93
		c-2.21,0-3.83-0.56-4.84-1.68c-1.01-1.12-1.51-2.8-1.51-5.03v-9.78h-2.65v-2.34l3.05-1.85l1.6-4.28h3.54v4.32h5.68v4.15h-5.68v9.78
		c0,0.79,0.22,1.37,0.66,1.74S145.27,106.38,145.99,106.38z"/>
	<path fill="#2E58A6" d="M162.76,110.79c-3.27,0-5.82-0.9-7.66-2.7c-1.84-1.8-2.76-4.35-2.76-7.66c0-3.4,0.85-6.03,2.55-7.88
		c1.7-1.86,4.05-2.78,7.05-2.78c2.87,0,5.1,0.82,6.7,2.45s2.4,3.89,2.4,6.77v2.69h-13.08c0.06,1.57,0.53,2.8,1.4,3.68
		c0.87,0.88,2.09,1.32,3.67,1.32c1.22,0,2.38-0.13,3.47-0.38c1.09-0.25,2.23-0.66,3.41-1.22v4.28c-0.97,0.48-2,0.84-3.1,1.08
		C165.69,110.67,164.34,110.79,162.76,110.79z M161.98,93.7c-1.17,0-2.09,0.37-2.76,1.12c-0.67,0.74-1.05,1.8-1.14,3.17h7.77
		c-0.02-1.37-0.38-2.42-1.07-3.17C164.08,94.07,163.15,93.7,161.98,93.7z"/>
	<path fill="#2E58A6" d="M186.85,89.76c0.75,0,1.37,0.05,1.87,0.16l-0.42,5.19c-0.45-0.12-0.99-0.18-1.63-0.18
		c-1.77,0-3.14,0.45-4.13,1.36s-1.48,2.18-1.48,3.81v10.32h-5.53V90.14h4.19l0.82,3.41h0.27c0.63-1.14,1.48-2.05,2.55-2.75
		C184.43,90.11,185.6,89.76,186.85,89.76z"/>
</g>
<g>
	<path fill="#1F3F72" d="M685.4,142.73c1.75,0,2.8,0.91,3.14,2.73h0.07c0.54-0.88,1.18-1.55,1.92-2.03
		c0.74-0.47,1.53-0.71,2.37-0.71c1.09,0,1.92,0.34,2.49,1.02c0.57,0.68,0.86,1.63,0.86,2.84c0,0.61-0.09,1.33-0.28,2.16l-1.59,7.64
		h-3.61l1.65-7.83c0.13-0.54,0.19-1.02,0.19-1.43c0-0.98-0.39-1.47-1.17-1.47c-0.74,0-1.4,0.45-2,1.34c-0.6,0.9-1.07,2.17-1.42,3.81
		l-1.15,5.57h-3.61l1.64-7.83c0.13-0.54,0.19-1.02,0.19-1.43c0-0.98-0.39-1.47-1.17-1.47c-0.74,0-1.4,0.46-2,1.37
		c-0.6,0.91-1.07,2.18-1.42,3.81l-1.17,5.55h-3.61l2.84-13.4h2.76l-0.25,2.48h0.07C682.31,143.65,683.73,142.73,685.4,142.73z"/>
	<path fill="#1F3F72" d="M703.87,156.63c-1.68,0-2.98-0.45-3.91-1.35c-0.93-0.9-1.39-2.18-1.39-3.82c0-1.65,0.33-3.16,0.99-4.52
		c0.66-1.36,1.55-2.4,2.68-3.12c1.13-0.72,2.4-1.07,3.82-1.07c1.41,0,2.52,0.33,3.31,0.98c0.79,0.65,1.19,1.54,1.19,2.68
		c0,1.49-0.67,2.65-2,3.46c-1.33,0.81-3.24,1.22-5.72,1.22h-0.61l-0.02,0.25v0.24c0,0.73,0.21,1.3,0.62,1.72
		c0.41,0.42,1,0.63,1.77,0.63c0.7,0,1.33-0.08,1.89-0.23s1.25-0.42,2.06-0.8v2.72C707.17,156.28,705.61,156.63,703.87,156.63z
		 M705.84,145.34c-0.7,0-1.37,0.32-1.99,0.96s-1.03,1.42-1.22,2.34h0.54c1.24,0,2.2-0.19,2.89-0.58c0.69-0.39,1.04-0.91,1.04-1.58
		C707.09,145.71,706.67,145.34,705.84,145.34z"/>
	<path fill="#1F3F72" d="M721.26,142.73c0.47,0,0.85,0.04,1.15,0.13l-0.79,3.48c-0.36-0.13-0.76-0.19-1.2-0.19
		c-0.93,0-1.74,0.37-2.44,1.1c-0.7,0.73-1.2,1.78-1.49,3.15l-1.27,5.99h-3.61l2.84-13.4h2.76l-0.25,2.48h0.07
		C718.21,143.65,719.62,142.73,721.26,142.73z"/>
	<path fill="#1F3F72" d="M735.72,143.01L735.3,145l-2.08,0.49c0.13,0.42,0.19,0.89,0.19,1.41c0,1.56-0.48,2.79-1.45,3.7
		c-0.97,0.91-2.28,1.36-3.94,1.36c-0.47,0-0.87-0.04-1.19-0.12c-0.67,0.22-1.01,0.53-1.01,0.94c0,0.27,0.12,0.47,0.36,0.59
		c0.24,0.12,0.59,0.21,1.07,0.28l1.64,0.22c1.3,0.17,2.25,0.51,2.85,1.01c0.59,0.51,0.89,1.24,0.89,2.2c0,1.69-0.62,2.98-1.87,3.87
		c-1.25,0.9-3.03,1.34-5.35,1.34c-1.66,0-2.96-0.3-3.89-0.91c-0.93-0.6-1.4-1.43-1.4-2.49c0-0.82,0.27-1.52,0.82-2.1
		c0.55-0.59,1.4-1.07,2.57-1.46c-0.59-0.38-0.89-0.91-0.89-1.59c0-0.57,0.18-1.06,0.53-1.47s0.94-0.81,1.76-1.18
		c-0.52-0.39-0.9-0.84-1.15-1.34c-0.25-0.5-0.37-1.11-0.37-1.83c0-1.59,0.5-2.85,1.5-3.78c1-0.93,2.37-1.4,4.09-1.4
		c0.66,0,1.33,0.09,1.99,0.28H735.72z M725.88,156.46c-0.85,0.11-1.49,0.34-1.92,0.68c-0.44,0.34-0.65,0.78-0.65,1.31
		c0,0.92,0.78,1.38,2.33,1.38c1.21,0,2.12-0.18,2.73-0.54c0.62-0.36,0.92-0.87,0.92-1.52c0-0.31-0.13-0.55-0.39-0.72
		s-0.81-0.31-1.65-0.42L725.88,156.46z M728.86,145.02c-0.62,0-1.11,0.31-1.49,0.92c-0.38,0.61-0.57,1.38-0.57,2.3
		c0,0.95,0.41,1.43,1.23,1.43c0.6,0,1.08-0.31,1.46-0.92c0.37-0.61,0.56-1.38,0.56-2.32C730.05,145.49,729.65,145.02,728.86,145.02z
		"/>
	<path fill="#1F3F72" d="M741.16,156.63c-1.68,0-2.98-0.45-3.91-1.35c-0.93-0.9-1.39-2.18-1.39-3.82c0-1.65,0.33-3.16,0.99-4.52
		c0.66-1.36,1.55-2.4,2.68-3.12c1.13-0.72,2.4-1.07,3.82-1.07c1.41,0,2.52,0.33,3.31,0.98c0.79,0.65,1.19,1.54,1.19,2.68
		c0,1.49-0.67,2.65-2,3.46c-1.33,0.81-3.24,1.22-5.72,1.22h-0.61l-0.02,0.25v0.24c0,0.73,0.21,1.3,0.62,1.72
		c0.41,0.42,1,0.63,1.77,0.63c0.7,0,1.33-0.08,1.89-0.23s1.25-0.42,2.06-0.8v2.72C744.46,156.28,742.9,156.63,741.16,156.63z
		 M743.13,145.34c-0.7,0-1.37,0.32-1.99,0.96s-1.03,1.42-1.22,2.34h0.54c1.24,0,2.2-0.19,2.89-0.58c0.69-0.39,1.04-0.91,1.04-1.58
		C744.38,145.71,743.96,145.34,743.13,145.34z"/>
</g>
<circle fill="#59103A" cx="487.88" cy="219.94" r="27.9"/>
<circle fill="#2E58A6" cx="263.88" cy="100.06" r="27.9"/>
<circle fill="#59103A" cx="263.88" cy="219.94" r="27.9"/>
<g>
	<path fill="#59103A" d="M71.37,209.54c0.75,0,1.37,0.05,1.87,0.16l-0.42,5.19c-0.45-0.12-0.99-0.18-1.63-0.18
		c-1.77,0-3.14,0.45-4.13,1.36s-1.48,2.18-1.48,3.81v10.32h-5.53v-20.28h4.19l0.82,3.41h0.27c0.63-1.14,1.48-2.05,2.55-2.75
		S70.11,209.54,71.37,209.54z"/>
	<path fill="#59103A" d="M89.8,230.2l-1.07-2.76h-0.15c-0.93,1.17-1.89,1.99-2.88,2.44c-0.99,0.45-2.27,0.68-3.86,0.68
		c-1.95,0-3.48-0.56-4.6-1.67c-1.12-1.11-1.68-2.7-1.68-4.75c0-2.15,0.75-3.74,2.26-4.76c1.51-1.02,3.78-1.59,6.81-1.7l3.52-0.11
		v-0.89c0-2.06-1.05-3.08-3.16-3.08c-1.62,0-3.53,0.49-5.72,1.47l-1.83-3.74c2.33-1.22,4.92-1.83,7.77-1.83
		c2.72,0,4.81,0.59,6.26,1.78c1.45,1.19,2.18,2.99,2.18,5.41v13.52H89.8z M88.17,220.8l-2.14,0.07c-1.61,0.05-2.81,0.34-3.59,0.87
		s-1.18,1.34-1.18,2.43c0,1.56,0.9,2.34,2.69,2.34c1.28,0,2.31-0.37,3.08-1.11c0.77-0.74,1.15-1.72,1.15-2.94V220.8z"/>
	<path fill="#59103A" d="M117.53,230.2h-5.53v-11.85c0-1.46-0.25-2.56-0.73-3.29c-0.49-0.73-1.26-1.1-2.31-1.1
		c-1.42,0-2.44,0.52-3.08,1.56c-0.64,1.04-0.96,2.75-0.96,5.13v9.54h-5.53v-20.28h4.23l0.74,2.59h0.31
		c0.54-0.93,1.33-1.66,2.36-2.19c1.03-0.53,2.21-0.79,3.54-0.79c3.04,0,5.09,0.99,6.17,2.98h0.49c0.54-0.94,1.35-1.67,2.4-2.2
		c1.06-0.52,2.25-0.78,3.58-0.78c2.3,0,4.04,0.59,5.22,1.77c1.18,1.18,1.77,3.07,1.77,5.67v13.23h-5.55v-11.85
		c0-1.46-0.25-2.56-0.73-3.29c-0.49-0.73-1.26-1.1-2.31-1.1c-1.35,0-2.37,0.48-3.04,1.45s-1.01,2.5-1.01,4.61V230.2z"/>
	<path fill="#59103A" d="M148.73,230.2l-1.07-2.76h-0.15c-0.93,1.17-1.89,1.99-2.88,2.44c-0.99,0.45-2.27,0.68-3.86,0.68
		c-1.95,0-3.48-0.56-4.6-1.67c-1.12-1.11-1.68-2.7-1.68-4.75c0-2.15,0.75-3.74,2.26-4.76c1.51-1.02,3.78-1.59,6.81-1.7l3.52-0.11
		v-0.89c0-2.06-1.05-3.08-3.16-3.08c-1.62,0-3.53,0.49-5.72,1.47l-1.83-3.74c2.33-1.22,4.92-1.83,7.77-1.83
		c2.72,0,4.81,0.59,6.26,1.78c1.45,1.19,2.18,2.99,2.18,5.41v13.52H148.73z M147.1,220.8l-2.14,0.07c-1.61,0.05-2.81,0.34-3.59,0.87
		s-1.18,1.34-1.18,2.43c0,1.56,0.9,2.34,2.69,2.34c1.28,0,2.31-0.37,3.08-1.11c0.77-0.74,1.15-1.72,1.15-2.94V220.8z"/>
	<path fill="#59103A" d="M170.74,236.08h-15.42v-2.54h15.42V236.08z"/>
	<path fill="#59103A" d="M190.7,230.2h-18.54v-3.9l6.66-6.73c1.97-2.02,3.26-3.42,3.86-4.2c0.6-0.78,1.04-1.5,1.31-2.17
		c0.27-0.67,0.4-1.35,0.4-2.07c0-1.06-0.29-1.86-0.88-2.38c-0.59-0.52-1.37-0.78-2.35-0.78c-1.03,0-2.03,0.24-2.99,0.71
		s-1.98,1.14-3.03,2.01l-3.05-3.61c1.31-1.11,2.39-1.9,3.25-2.36c0.86-0.46,1.8-0.81,2.81-1.06s2.15-0.37,3.41-0.37
		c1.66,0,3.12,0.3,4.39,0.91c1.27,0.61,2.26,1.45,2.96,2.54c0.7,1.09,1.05,2.33,1.05,3.74c0,1.22-0.21,2.37-0.64,3.44
		s-1.09,2.17-2,3.29c-0.9,1.13-2.49,2.73-4.76,4.81l-3.41,3.21v0.25h11.56V230.2z"/>
</g>
<circle fill="#1F3F72" cx="711.87" cy="100.06" r="27.9"/>
<circle fill="#1F3F72" cx="935.86" cy="100.06" r="27.9"/>
<g>
</g>
<g>
</g>
<g>
</g>
<g>
</g>
<g>
</g>
<g>
</g>
</svg>
