<svg xmlns="http://www.w3.org/2000/svg" xmlns:xlink="http://www.w3.org/1999/xlink" viewBox="0 0 977.03 314.32"><defs><style>.cls-1{fill:#fff;}.cls-2,.cls-3{fill:none;stroke-miterlimit:10;stroke-width:10px;}.cls-2{stroke:#999;}.cls-3{stroke:url(#Degradado_sin_nombre_17);}.cls-4,.cls-6{fill:#2e58a6;}.cls-5,.cls-7{fill:#1f3f72;}.cls-6,.cls-9{font-size:37.16px;font-family:OpenSans-Bold, Open Sans;}.cls-6,.cls-7,.cls-9{font-weight:700;}.cls-7{font-size:24.55px;font-family:OpenSans-BoldItalic, Open Sans;font-style:italic;}.cls-8,.cls-9{fill:#59103a;}</style><linearGradient id="Degradado_sin_nombre_17" x1="186.1" y1="199.13" x2="262.11" y2="199.13" gradientUnits="userSpaceOnUse"><stop offset="0" stop-color="#fff" stop-opacity="0"/><stop offset="0.63" stop-color="#999"/><stop offset="1"/></linearGradient></defs><title>Recurso 2</title><g id="Capa_2" data-name="Capa 2"><g id="Capa_1-2" data-name="Capa 1"><rect class="cls-1" width="977.03" height="314.32"/><line class="cls-2" x1="414.97" y1="199.13" x2="262.11" y2="199.13"/><line class="cls-2" x1="567.74" y1="199.13" x2="414.88" y2="199.13"/><line class="cls-2" x1="567.74" y1="79.25" x2="414.88" y2="79.25"/><line class="cls-3" x1="262.11" y1="199.13" x2="186.1" y2="199.13"/><path class="cls-2" d="M262.11,199.13s17.17,0,35.55,0,27.71-30.65,40.88-59.89S361,79.25,379.44,79.25H415"/><line class="cls-2" x1="567.64" y1="199.13" x2="720.5" y2="199.13"/><path class="cls-2" d="M720.5,199.13s-17.16,0-35.55,0-27.71-30.65-40.88-59.89-22.49-59.94-40.9-59.94H567.64"/><circle class="cls-4" cx="414.88" cy="199.13" r="27.9"/><line class="cls-2" x1="873.27" y1="199.13" x2="720.41" y2="199.13"/><circle class="cls-5" cx="873.18" cy="199.13" r="27.9"/><text class="cls-6" transform="translate(55.37 209.49)">master</text><text class="cls-7" transform="translate(683.92 255.06)">merge</text><circle class="cls-8" cx="414.88" cy="79.25" r="27.9"/><circle class="cls-8" cx="567.64" cy="79.25" r="27.9"/><circle class="cls-4" cx="262.11" cy="199.13" r="27.9"/><text class="cls-9" transform="translate(202.49 90.09)">bug_fix</text><circle class="cls-5" cx="720.5" cy="199.13" r="27.9"/></g></g></svg>