<svg xmlns="http://www.w3.org/2000/svg" xmlns:xlink="http://www.w3.org/1999/xlink" viewBox="0 0 1104.39 370.84"><defs><style>.cls-1{fill:#fff;}.cls-15,.cls-2,.cls-3,.cls-4,.cls-5,.cls-7,.cls-9{fill:none;stroke-miterlimit:10;}.cls-15,.cls-2,.cls-3,.cls-7{stroke:#999;}.cls-15,.cls-2,.cls-3,.cls-4,.cls-5,.cls-9{stroke-width:10px;}.cls-3{opacity:0.4;}.cls-4,.cls-5{stroke:#eaeaea;}.cls-15,.cls-5,.cls-7{stroke-dasharray:24 10;}.cls-6{fill:#eaeaea;}.cls-7{stroke-width:6px;}.cls-8{fill:#999;}.cls-9{stroke:url(#Degradado_sin_nombre_17);}.cls-10,.cls-11{fill:#2e58a6;}.cls-11,.cls-17,.cls-18{font-size:37.16px;font-family:OpenSans-Bold, Open Sans;}.cls-11,.cls-12,.cls-13,.cls-17,.cls-18,.cls-19{font-weight:700;}.cls-12,.cls-13,.cls-19{font-size:24.55px;font-family:OpenSans-BoldItalic, Open Sans;font-style:italic;}.cls-12{fill:#1f3f72;}.cls-13,.cls-14,.cls-17{fill:#ccc;}.cls-16,.cls-18,.cls-19{fill:#59103a;}</style><linearGradient id="Degradado_sin_nombre_17" x1="186.1" y1="255.64" x2="262.11" y2="255.64" gradientUnits="userSpaceOnUse"><stop offset="0" stop-color="#fff" stop-opacity="0"/><stop offset="0.63" stop-color="#999"/><stop offset="1"/></linearGradient></defs><title>Recurso 4</title><g id="Capa_2" data-name="Capa 2"><g id="Capa_1-2" data-name="Capa 1"><rect class="cls-1" width="1104.39" height="370.84"/><line class="cls-2" x1="414.97" y1="255.64" x2="262.11" y2="255.64"/><line class="cls-2" x1="567.74" y1="255.64" x2="414.88" y2="255.64"/><line class="cls-3" x1="567.74" y1="135.77" x2="414.88" y2="135.77"/><line class="cls-4" x1="567.74" y1="135.77" x2="414.88" y2="135.77"/><line class="cls-5" x1="413.98" y1="135.77" x2="302.41" y2="225.87"/><polygon class="cls-6" points="298.42 216.27 291.25 234.88 310.95 231.79 298.42 216.27"/><path class="cls-7" d="M434.53,107.27c19.67-19.67,45-51.93,129.12-51.93,68.9,0,107.68,25.72,126.92,42.49"/><polygon class="cls-8" points="681.93 103.01 700.59 107.28 694.96 88.98 681.93 103.01"/><line class="cls-9" x1="262.11" y1="255.64" x2="186.1" y2="255.64"/><circle class="cls-10" cx="414.88" cy="255.64" r="27.9"/><text class="cls-11" transform="translate(55.37 266)">master</text><text class="cls-12" transform="translate(528.4 311.58)">rebase</text><text class="cls-13" transform="translate(203.97 311.58)">vieja base</text><circle class="cls-14" cx="414.88" cy="135.77" r="27.9"/><circle class="cls-14" cx="567.64" cy="135.77" r="27.9"/><line class="cls-2" x1="872.02" y1="135.77" x2="719.16" y2="135.77"/><line class="cls-2" x1="874.73" y1="135.77" x2="721.87" y2="135.77"/><line class="cls-15" x1="720.98" y1="135.77" x2="609.41" y2="225.87"/><polygon class="cls-8" points="605.41 216.27 598.24 234.88 617.95 231.79 605.41 216.27"/><circle class="cls-16" cx="721.87" cy="135.77" r="27.9"/><circle class="cls-16" cx="871.93" cy="135.77" r="27.9"/><circle class="cls-10" cx="262.11" cy="255.64" r="27.9"/><text class="cls-17" transform="translate(238.49 146.61)">bug_fix</text><text class="cls-18" transform="translate(918.21 146.61)">bug_fix</text><circle class="cls-10" cx="567.64" cy="255.64" r="27.9"/><text class="cls-19" transform="translate(608.06 263.62)">nueva base</text></g></g></svg>